<svg xmlns="http://www.w3.org/2000/svg" xmlns:xlink="http://www.w3.org/1999/xlink" id="Layer_4" x="0" y="0" version="1.1" viewBox="0 0 800 800" xml:space="preserve" style="enable-background:new 0 0 800 800"><style type="text/css">.st0,.st1{fill:#8f2d56}.st1{display:none}.st2,.st3{fill:#08b}.st3{display:none}.st4,.st5{fill:#ffd166}.st5{display:none}.st6,.st7{fill:#ef476f}.st7{display:none}.st8{fill:#485b89}.st9{fill:#16ac5b}.st10{fill:#f78c6b}</style><g><g><path d="M167.6,687.6L167.6,687.6c-46.8,0-85-38.2-85-85v-405c0-46.7,38.2-85,85-85h0c46.7,0,85,38.2,85,85v405 C252.6,649.3,214.4,687.6,167.6,687.6z" class="st0"/><path d="M252.6,602.6c0,49.4-38.1,85-85,85s-85-35.6-85-85c0-46.9,38.1-85,85-85S252.6,555.6,252.6,602.6z" class="st1"/><path d="M252.6,197.4c0,46.9-38.1,85-85,85s-85-38.1-85-85c0-49.4,38.1-85,85-85S252.6,150.5,252.6,197.4z" class="st1"/></g><g><path d="M448.8,598.9L448.8,598.9c-38.3,26.8-91.6,17.4-118.4-20.9L98.1,246.3c-26.8-38.3-17.4-91.6,20.9-118.4l0,0 c38.3-26.8,91.6-17.4,118.4,20.9l232.3,331.8C496.4,518.9,487,572.1,448.8,598.9z" class="st2"/><ellipse cx="400" cy="529.3" class="st3" rx="85" ry="85" transform="matrix(0.8192 -0.5736 0.5736 0.8192 -231.2622 325.1558)"/><ellipse cx="167.6" cy="197.4" class="st3" rx="85" ry="85" transform="matrix(0.8192 -0.5736 0.5736 0.8192 -82.9248 131.8386)"/></g><g><path d="M681.1,127.8L681.1,127.8c38.3,26.8,47.7,80.1,20.9,118.4L469.7,577.9c-26.8,38.3-80.1,47.7-118.4,20.9l0,0 c-38.3-26.8-47.7-80.1-20.9-118.4l232.3-331.8C589.6,110.4,642.9,101,681.1,127.8z" class="st4"/><ellipse cx="632.4" cy="197.4" class="st5" rx="85" ry="85" transform="matrix(0.5736 -0.8192 0.8192 0.5736 107.9495 602.2112)"/><ellipse cx="400" cy="529.3" class="st5" rx="85" ry="85" transform="matrix(0.5736 -0.8192 0.8192 0.5736 -263.0183 553.3725)"/></g><g><path d="M632.4,687.6L632.4,687.6c46.8,0,85-38.2,85-85v-405c0-46.7-38.2-85-85-85h0c-46.7,0-85,38.2-85,85v405 C547.4,649.3,585.6,687.6,632.4,687.6z" class="st6"/><path d="M547.4,602.6c0,49.4,38.1,85,85,85c46.9,0,85-35.6,85-85c0-46.9-38.1-85-85-85 C585.4,517.6,547.4,555.6,547.4,602.6z" class="st7"/><path d="M547.4,197.4c0,46.9,38.1,85,85,85c46.9,0,85-38.1,85-85c0-49.4-38.1-85-85-85 C585.4,112.4,547.4,150.5,547.4,197.4z" class="st7"/></g><path d="M197.4,118c-0.8-0.3-1.5-0.6-2.3-0.8c-0.3-0.1-0.7-0.2-1-0.3c-15.5-5-32.2-5.6-48.2-1.4 c-0.2,0.1-0.4,0.1-0.6,0.2c-1.1,0.3-2.1,0.6-3.2,0.9c-1.1,0.3-2.1,0.7-3.1,1.1c-0.2,0.1-0.4,0.1-0.5,0.2 c-15.5,5.7-28.9,15.8-38.7,28.8c-0.2,0.3-0.4,0.6-0.6,0.8c-0.5,0.7-1,1.3-1.4,2c-19.4,28.4-20.4,67.1,0.4,96.9L252.6,467V197.6 C252.6,161.3,229.5,130.1,197.4,118z" class="st8"/><path d="M469.6,480.6L400,381.1l-69.5,99.3c-26.8,38.3-17.4,91.6,20.9,118.4l0,0c36.6,25.7,87,18.1,114.7-16.1 C489.2,554,491.8,512.2,469.6,480.6z" class="st9"/><path d="M711.9,167.7c-12.2-32.1-43.3-55.1-79.5-55.1h0c-46.7,0-85,38.2-85,85V467L702,246.2 c15.9-22.7,19.1-50.7,11-75.3c0-0.1-0.1-0.3-0.1-0.4C712.6,169.6,712.3,168.6,711.9,167.7z" class="st10"/></g></svg>